<svg xmlns="http://www.w3.org/2000/svg" xmlns:xlink="http://www.w3.org/1999/xlink" width="118" zoomAndPan="magnify" viewBox="0 0 88.5 31.5" height="42" preserveAspectRatio="xMidYMid meet" version="1.0"><defs><g/><clipPath id="b454ff2cd1"><path d="M 5 8 L 32 8 L 32 24.375 L 5 24.375 Z M 5 8 " clip-rule="nonzero"/></clipPath><clipPath id="64bd8badee"><path d="M 3.546875 6.65625 L 33.816406 6.65625 L 33.816406 24.375 L 3.546875 24.375 Z M 3.546875 6.65625 " clip-rule="nonzero"/></clipPath><clipPath id="516631c815"><path d="M 6.203125 15.207031 L 29 15.207031 L 29 24.066406 L 6.203125 24.066406 Z M 6.203125 15.207031 " clip-rule="nonzero"/></clipPath><clipPath id="9fd2c4938d"><path d="M 28.53125 22.542969 L 28.433594 22.542969 L 28.714844 21.203125 C 28.777344 20.925781 28.703125 20.480469 28.570312 20.226562 L 26.703125 16.878906 C 26.558594 16.625 26.207031 16.417969 25.917969 16.417969 L 22.371094 16.417969 C 22.082031 16.417969 21.792969 16.652344 21.738281 16.933594 L 20.273438 23.8125 C 20.207031 24.089844 20.398438 24.328125 20.6875 24.328125 L 22.398438 24.328125 C 22.589844 23.441406 23.457031 22.726562 24.34375 22.726562 C 25.230469 22.726562 25.789062 23.441406 25.609375 24.328125 L 27.539062 24.328125 C 27.554688 24.328125 27.5625 24.328125 27.582031 24.328125 C 27.589844 24.328125 27.609375 24.328125 27.617188 24.328125 L 28.160156 24.328125 C 28.351562 24.328125 28.542969 24.171875 28.585938 23.984375 L 28.820312 22.886719 C 28.859375 22.699219 28.730469 22.542969 28.53125 22.542969 Z M 27.4375 20.128906 C 27.410156 20.265625 27.230469 20.382812 27.03125 20.382812 L 22.652344 20.382812 C 22.460938 20.382812 22.335938 20.226562 22.371094 20.039062 L 22.914062 17.476562 C 22.949219 17.289062 23.148438 17.132812 23.339844 17.132812 L 25.601562 17.132812 C 25.789062 17.132812 26.027344 17.269531 26.125 17.441406 L 27.320312 19.585938 C 27.417969 19.738281 27.464844 19.984375 27.4375 20.128906 Z M 9.152344 22.171875 L 19.9375 22.171875 L 19.574219 23.863281 L 15.167969 23.863281 L 14.046875 22.769531 L 9.023438 22.769531 Z M 20.433594 19.855469 L 20.074219 21.546875 L 16 21.546875 L 14.886719 20.464844 L 8.09375 20.464844 L 8.21875 19.855469 Z M 15.703125 18.136719 L 7.144531 18.136719 L 7.269531 17.539062 L 20.921875 17.539062 L 20.5625 19.234375 L 16.824219 19.234375 Z M 16.488281 15.820312 L 6.203125 15.820312 L 6.328125 15.222656 L 21.421875 15.222656 L 21.058594 16.917969 L 17.613281 16.917969 Z M 16.488281 15.820312 " clip-rule="nonzero"/></clipPath></defs><g clip-path="url(#b454ff2cd1)"><path fill="#000000" d="M 5.683594 24.199219 L 31.851562 24.199219 L 31.851562 21.855469 C 31.851562 14.660156 25.960938 8.773438 18.765625 8.773438 C 11.574219 8.773438 5.683594 14.660156 5.683594 21.855469 Z M 5.683594 24.199219 " fill-opacity="1" fill-rule="evenodd"/></g><g clip-path="url(#64bd8badee)"><path fill="#000000" d="M 4.386719 24.199219 L 4.386719 21.855469 C 4.386719 13.945312 10.859375 7.476562 18.765625 7.476562 C 26.675781 7.476562 33.148438 13.945312 33.148438 21.855469 L 33.148438 24.199219 L 33.96875 21.855469 C 33.96875 13.496094 27.125 6.65625 18.765625 6.65625 C 10.410156 6.65625 3.566406 13.496094 3.566406 21.855469 Z M 4.386719 24.199219 " fill-opacity="1" fill-rule="evenodd"/></g><g clip-path="url(#516631c815)"><g clip-path="url(#9fd2c4938d)"><path fill="#ffffff" d="M 6.203125 15.222656 L 6.203125 24.066406 L 28.859375 24.066406 L 28.859375 15.222656 Z M 6.203125 15.222656 " fill-opacity="1" fill-rule="nonzero"/></g></g><g fill="#000000" fill-opacity="1"><g transform="translate(37.80984, 16.106993)"><g><path d="M 0.722656 0.0195312 L 0.863281 0 L 1.132812 0.015625 L 1.285156 -0.0078125 L 1.507812 0.0078125 L 1.703125 -0.078125 L 1.785156 -0.203125 L 1.765625 -0.929688 L 1.785156 -1.148438 L 1.78125 -1.292969 L 1.792969 -1.542969 L 1.78125 -1.695312 L 1.78125 -1.96875 L 1.84375 -2.03125 L 1.910156 -2.003906 L 2.023438 -1.910156 L 2.105469 -1.808594 L 2.390625 -1.523438 L 2.480469 -1.410156 L 2.667969 -1.230469 L 2.816406 -1.125 L 2.96875 -1.121094 L 3.105469 -1.222656 L 3.203125 -1.328125 L 3.289062 -1.410156 L 3.484375 -1.640625 L 3.578125 -1.710938 L 3.863281 -2.003906 L 3.957031 -2.042969 L 4.011719 -1.941406 L 3.996094 -1.558594 L 4.019531 -1.277344 L 4.003906 -1.007812 L 4.019531 -0.75 L 4.003906 -0.625 L 4.019531 -0.3125 L 4.019531 -0.207031 L 4.074219 -0.046875 L 4.21875 -0.0078125 L 5.0625 0.0195312 L 5.207031 -0.0546875 L 5.289062 -0.257812 L 5.269531 -0.617188 L 5.28125 -0.757812 L 5.269531 -2.84375 L 5.28125 -2.996094 L 5.277344 -3.683594 L 5.28125 -3.816406 L 5.269531 -4.117188 L 5.277344 -4.234375 L 5.269531 -4.519531 L 5.28125 -4.652344 L 5.199219 -4.796875 L 5.054688 -4.871094 L 4.851562 -4.808594 L 4.707031 -4.71875 L 4.414062 -4.414062 L 4.324219 -4.304688 L 4.242188 -4.226562 L 4.144531 -4.101562 L 3.53125 -3.476562 L 3.441406 -3.359375 L 3.015625 -2.925781 L 2.890625 -2.84375 L 2.746094 -2.898438 L 2.664062 -3.015625 L 2.566406 -3.113281 L 2.441406 -3.273438 L 2.285156 -3.414062 L 1.65625 -4.117188 L 1.558594 -4.199219 L 1.375 -4.414062 L 1.265625 -4.511719 L 1.085938 -4.699219 L 0.925781 -4.816406 L 0.730469 -4.871094 L 0.578125 -4.804688 L 0.5 -4.65625 L 0.519531 -4.234375 L 0.5 -3.960938 L 0.515625 -3.835938 L 0.507812 -2.726562 L 0.519531 -2.585938 L 0.5 -1.882812 L 0.515625 -1.75 L 0.507812 -0.214844 L 0.582031 -0.0703125 Z M 0.722656 0.0195312 "/></g></g></g><g fill="#000000" fill-opacity="1"><g transform="translate(43.621383, 16.106993)"><g><path d="M 4.101562 0.015625 L 4.367188 -0.0078125 L 4.496094 0.0078125 L 4.714844 0 L 4.90625 -0.0351562 L 4.929688 -0.203125 L 4.878906 -0.363281 L 4.777344 -0.617188 L 4.589844 -0.980469 L 4.492188 -1.238281 L 4.351562 -1.488281 L 4.085938 -2.121094 L 4.019531 -2.222656 L 3.949219 -2.355469 L 3.90625 -2.507812 L 3.84375 -2.613281 L 3.800781 -2.726562 L 3.65625 -2.980469 L 3.609375 -3.128906 L 3.148438 -4.09375 L 3.105469 -4.234375 L 3.03125 -4.359375 L 2.988281 -4.484375 L 2.855469 -4.726562 L 2.738281 -4.851562 L 2.507812 -4.921875 L 2.285156 -4.84375 L 2.160156 -4.726562 L 2.097656 -4.609375 L 2.050781 -4.46875 L 1.988281 -4.371094 L 1.710938 -3.734375 L 1.632812 -3.628906 L 1.597656 -3.488281 L 1.523438 -3.359375 L 1.480469 -3.234375 L 0.773438 -1.746094 L 0.730469 -1.59375 L 0.660156 -1.488281 L 0.613281 -1.347656 L 0.488281 -1.125 L 0.382812 -0.847656 L 0.304688 -0.75 L 0.269531 -0.625 L 0.132812 -0.347656 L 0.0898438 -0.207031 L 0.125 -0.0351562 L 0.265625 0.0078125 L 0.535156 -0.0078125 L 0.675781 0.0078125 L 1.0625 -0.0078125 L 1.222656 -0.0546875 L 1.355469 -0.179688 L 1.480469 -0.410156 L 1.613281 -0.542969 L 1.757812 -0.617188 L 1.890625 -0.597656 L 2.183594 -0.625 L 2.308594 -0.605469 L 2.988281 -0.613281 L 3.113281 -0.597656 L 3.265625 -0.617188 L 3.421875 -0.542969 L 3.550781 -0.429688 L 3.613281 -0.300781 L 3.65625 -0.171875 L 3.796875 -0.0703125 L 3.957031 0 Z M 2.523438 -1.71875 L 2.382812 -1.746094 L 2.222656 -1.730469 L 2.113281 -1.78125 L 2.105469 -1.910156 L 2.433594 -2.664062 L 2.507812 -2.726562 L 2.605469 -2.667969 L 2.933594 -1.90625 L 2.90625 -1.78125 L 2.800781 -1.722656 Z M 2.523438 -1.71875 "/></g></g></g><g fill="#000000" fill-opacity="1"><g transform="translate(48.668251, 16.106993)"><g><path d="M 2.414062 0.0703125 L 3.105469 0.0703125 L 3.628906 -0.0546875 L 4.121094 -0.304688 L 4.335938 -0.472656 L 4.441406 -0.582031 L 4.546875 -0.667969 L 4.628906 -0.765625 L 4.699219 -0.882812 L 4.761719 -1.007812 L 4.84375 -1.105469 L 4.984375 -1.515625 L 5.039062 -1.78125 L 5.046875 -1.898438 L 5.074219 -2.023438 L 5.074219 -2.160156 L 5.089844 -2.292969 L 5.074219 -2.558594 L 5.003906 -2.675781 L 4.871094 -2.746094 L 4.726562 -2.753906 L 4.582031 -2.773438 L 3.644531 -2.753906 L 3.226562 -2.78125 L 2.960938 -2.761719 L 2.824219 -2.691406 L 2.761719 -2.558594 L 2.761719 -1.898438 L 2.824219 -1.785156 L 2.949219 -1.710938 L 3.148438 -1.695312 L 3.496094 -1.722656 L 3.621094 -1.703125 L 3.726562 -1.65625 L 3.746094 -1.535156 L 3.675781 -1.417969 L 3.574219 -1.300781 L 3.476562 -1.222656 L 3.246094 -1.132812 L 2.976562 -1.070312 L 2.792969 -1.0625 L 2.441406 -1.105469 L 2.066406 -1.257812 L 1.855469 -1.453125 L 1.78125 -1.550781 L 1.648438 -1.800781 L 1.59375 -2.003906 L 1.558594 -2.222656 L 1.550781 -2.628906 L 1.597656 -2.898438 L 1.710938 -3.148438 L 1.925781 -3.476562 L 2.167969 -3.648438 L 2.285156 -3.710938 L 2.417969 -3.726562 L 2.539062 -3.78125 L 2.960938 -3.796875 L 3.21875 -3.726562 L 3.351562 -3.671875 L 3.484375 -3.578125 L 3.566406 -3.488281 L 3.65625 -3.371094 L 3.800781 -3.253906 L 3.96875 -3.203125 L 4.183594 -3.199219 L 4.394531 -3.226562 L 4.726562 -3.203125 L 4.902344 -3.28125 L 4.941406 -3.398438 L 4.84375 -3.683594 L 4.78125 -3.808594 L 4.503906 -4.210938 L 4.351562 -4.335938 L 4.242188 -4.441406 L 4.136719 -4.527344 L 3.648438 -4.78125 L 3.503906 -4.808594 L 3.175781 -4.902344 L 2.53125 -4.929688 L 2.390625 -4.921875 L 2.273438 -4.878906 L 2.140625 -4.871094 L 1.605469 -4.679688 L 1.222656 -4.441406 L 0.917969 -4.171875 L 0.828125 -4.058594 L 0.722656 -3.957031 L 0.648438 -3.851562 L 0.390625 -3.328125 L 0.265625 -2.640625 L 0.257812 -2.417969 L 0.292969 -1.933594 L 0.488281 -1.277344 L 0.613281 -1.042969 L 0.773438 -0.804688 L 1.050781 -0.515625 L 1.277344 -0.355469 L 1.757812 -0.078125 L 1.875 -0.0429688 L 2.273438 0.0273438 Z M 2.414062 0.0703125 "/></g></g></g><g fill="#000000" fill-opacity="1"><g transform="translate(53.993178, 16.106993)"><g><path d="M 2.328125 0.0273438 L 2.605469 0.015625 L 2.730469 -0.0546875 L 2.800781 -0.1875 L 2.800781 -0.875 L 2.71875 -1.007812 L 2.566406 -1.085938 L 2.417969 -1.085938 L 2.253906 -1.140625 L 2.167969 -1.300781 L 2.191406 -1.433594 L 2.183594 -2.195312 L 2.195312 -2.351562 L 2.167969 -2.851562 L 2.195312 -3.550781 L 2.246094 -3.710938 L 2.398438 -3.773438 L 2.539062 -3.796875 L 2.683594 -3.851562 L 2.753906 -3.960938 L 2.761719 -4.652344 L 2.675781 -4.78125 L 2.550781 -4.859375 L 1.710938 -4.859375 L 1.585938 -4.871094 L 1.445312 -4.84375 L 0.875 -4.84375 L 0.742188 -4.867188 L 0.582031 -4.867188 L 0.445312 -4.796875 L 0.375 -4.628906 L 0.394531 -4.117188 L 0.382812 -3.984375 L 0.457031 -3.84375 L 0.613281 -3.769531 L 0.75 -3.769531 L 0.882812 -3.683594 L 0.945312 -3.496094 L 0.964844 -1.363281 L 0.890625 -1.152344 L 0.429688 -1.015625 L 0.355469 -0.890625 L 0.332031 -0.25 L 0.402344 -0.0625 L 0.542969 0 L 0.675781 0 L 0.804688 -0.015625 L 1.007812 0.015625 L 1.222656 0.0078125 L 1.363281 -0.0078125 L 1.640625 0.0195312 L 1.847656 -0.0078125 L 2.191406 -0.0078125 Z M 2.328125 0.0273438 "/></g></g></g><g fill="#000000" fill-opacity="1"><g transform="translate(57.14921, 16.106993)"><g><path d="M 2.417969 0.0546875 L 2.765625 0.0820312 L 3.253906 0.046875 L 3.664062 -0.0351562 L 3.789062 -0.105469 L 3.933594 -0.152344 L 4.054688 -0.207031 L 4.394531 -0.453125 L 4.589844 -0.648438 L 4.746094 -0.855469 L 4.894531 -1.105469 L 5.074219 -1.632812 L 5.03125 -1.757812 L 4.894531 -1.847656 L 4.503906 -1.820312 L 4.367188 -1.84375 L 4.226562 -1.835938 L 4.085938 -1.84375 L 3.925781 -1.757812 L 3.816406 -1.648438 L 3.746094 -1.515625 L 3.585938 -1.335938 L 3.476562 -1.238281 L 3.371094 -1.195312 L 3.128906 -1.0625 L 2.761719 -1.042969 L 2.558594 -1.0625 L 2.308594 -1.152344 L 2.066406 -1.277344 L 1.863281 -1.460938 L 1.710938 -1.703125 L 1.660156 -1.84375 L 1.613281 -1.941406 L 1.578125 -2.066406 L 1.558594 -2.21875 L 1.558594 -2.640625 L 1.605469 -2.917969 L 1.710938 -3.167969 L 1.78125 -3.300781 L 1.945312 -3.496094 L 2.113281 -3.628906 L 2.300781 -3.734375 L 2.765625 -3.796875 L 3.066406 -3.78125 L 3.28125 -3.71875 L 3.40625 -3.671875 L 3.503906 -3.59375 L 3.707031 -3.390625 L 3.78125 -3.289062 L 3.914062 -3.15625 L 4.074219 -3.078125 L 4.199219 -3.09375 L 4.34375 -3.085938 L 4.484375 -3.09375 L 4.679688 -3.074219 L 4.886719 -3.09375 L 5.003906 -3.148438 L 5.054688 -3.289062 L 5.011719 -3.441406 L 4.964844 -3.566406 L 4.921875 -3.710938 L 4.84375 -3.824219 L 4.78125 -3.933594 L 4.683594 -4.054688 L 4.609375 -4.183594 L 4.414062 -4.386719 L 3.941406 -4.683594 L 3.273438 -4.90625 L 3.140625 -4.914062 L 3.003906 -4.9375 L 2.570312 -4.941406 L 1.898438 -4.808594 L 1.382812 -4.566406 L 1.183594 -4.414062 L 0.882812 -4.144531 L 0.695312 -3.90625 L 0.5625 -3.707031 L 0.390625 -3.316406 L 0.320312 -3.03125 L 0.25 -2.433594 L 0.292969 -1.925781 L 0.390625 -1.53125 L 0.6875 -0.925781 L 0.972656 -0.617188 L 1.285156 -0.347656 L 1.585938 -0.1875 L 1.898438 -0.0546875 L 2.023438 -0.0273438 L 2.160156 0.0195312 L 2.285156 0.046875 Z M 2.417969 0.0546875 "/></g></g></g><g fill="#000000" fill-opacity="1"><g transform="translate(62.453285, 16.106993)"><g/></g></g><g fill="#000000" fill-opacity="1"><g transform="translate(64.337174, 16.106993)"><g><path d="M 0.929688 0.0195312 L 1.273438 0.0078125 L 1.398438 0.015625 L 1.558594 0 L 1.703125 -0.0546875 L 1.765625 -0.203125 L 1.757812 -0.339844 L 1.765625 -0.492188 L 1.75 -0.75 L 1.765625 -0.882812 L 1.757812 -1.042969 L 1.820312 -1.167969 L 1.980469 -1.246094 L 2.132812 -1.257812 L 2.28125 -1.230469 L 2.996094 -1.285156 L 3.65625 -1.550781 L 3.761719 -1.632812 L 3.859375 -1.746094 L 3.949219 -1.835938 L 4.039062 -1.941406 L 4.183594 -2.160156 L 4.304688 -2.433594 L 4.324219 -2.585938 L 4.367188 -2.695312 L 4.378906 -3.265625 L 4.351562 -3.386719 L 4.332031 -3.539062 L 4.246094 -3.796875 L 4.117188 -4.03125 L 3.949219 -4.261719 L 3.636719 -4.53125 L 3.40625 -4.683594 L 3.128906 -4.769531 L 3.011719 -4.816406 L 2.871094 -4.816406 L 2.730469 -4.867188 L 2.523438 -4.871094 L 2.300781 -4.867188 L 2.148438 -4.84375 L 1.722656 -4.851562 L 1.585938 -4.871094 L 1.152344 -4.84375 L 1 -4.851562 L 0.875 -4.871094 L 0.730469 -4.84375 L 0.582031 -4.769531 L 0.519531 -4.65625 L 0.527344 -3.816406 L 0.5 -3.539062 L 0.515625 -3.40625 L 0.507812 -1.605469 L 0.519531 -1.472656 L 0.515625 -0.1875 L 0.589844 -0.0546875 L 0.804688 0.015625 Z M 1.972656 -2.355469 L 1.835938 -2.441406 L 1.773438 -2.558594 L 1.75 -3.121094 L 1.765625 -3.265625 L 1.765625 -3.550781 L 1.835938 -3.683594 L 1.980469 -3.753906 L 2.703125 -3.734375 L 2.84375 -3.671875 L 2.953125 -3.59375 L 3.042969 -3.503906 L 3.113281 -3.363281 L 3.136719 -3.238281 L 3.148438 -3.042969 L 3.136719 -2.855469 L 3.085938 -2.730469 L 3.023438 -2.621094 L 2.933594 -2.507812 L 2.824219 -2.425781 L 2.710938 -2.390625 L 2.496094 -2.363281 L 2.140625 -2.371094 Z M 1.972656 -2.355469 "/></g></g></g><g fill="#000000" fill-opacity="1"><g transform="translate(68.91133, 16.106993)"><g><path d="M 2.789062 0.0898438 L 3.40625 0.0273438 L 3.671875 -0.0546875 L 4.289062 -0.332031 L 4.777344 -0.800781 L 4.867188 -0.925781 L 5.136719 -1.402344 L 5.1875 -1.535156 L 5.207031 -1.675781 L 5.25 -1.785156 L 5.277344 -1.941406 L 5.3125 -2.425781 L 5.277344 -2.90625 L 5.21875 -3.164062 L 5.164062 -3.308594 L 5.128906 -3.46875 L 5.003906 -3.699219 L 4.957031 -3.824219 L 4.867188 -3.941406 L 4.78125 -4.023438 L 4.691406 -4.148438 L 4.394531 -4.421875 L 4.039062 -4.644531 L 3.128906 -4.929688 L 2.800781 -4.9375 L 2.316406 -4.90625 L 2.175781 -4.878906 L 2.035156 -4.839844 L 1.910156 -4.78125 L 1.648438 -4.714844 L 1.292969 -4.492188 L 1.195312 -4.40625 L 0.972656 -4.253906 L 0.785156 -4.046875 L 0.550781 -3.699219 L 0.488281 -3.578125 L 0.355469 -3.199219 L 0.300781 -2.898438 L 0.269531 -2.09375 L 0.347656 -1.65625 L 0.453125 -1.417969 L 0.492188 -1.273438 L 0.5625 -1.148438 L 0.890625 -0.703125 L 1.085938 -0.515625 L 1.175781 -0.410156 L 1.648438 -0.160156 L 1.78125 -0.105469 L 2.371094 0.0703125 Z M 2.59375 -1.132812 L 2.453125 -1.183594 L 2.328125 -1.195312 L 2.09375 -1.320312 L 1.875 -1.507812 L 1.808594 -1.605469 L 1.71875 -1.703125 L 1.585938 -2.09375 L 1.550781 -2.441406 L 1.558594 -2.648438 L 1.605469 -2.90625 L 1.648438 -3.03125 L 1.730469 -3.128906 L 1.792969 -3.246094 L 1.882812 -3.359375 L 1.988281 -3.449219 L 2.191406 -3.585938 L 2.316406 -3.648438 L 2.460938 -3.683594 L 2.78125 -3.710938 L 3.113281 -3.691406 L 3.484375 -3.53125 L 3.699219 -3.371094 L 3.859375 -3.136719 L 3.914062 -3.011719 L 3.957031 -2.871094 L 4.003906 -2.746094 L 4.03125 -2.445312 L 3.988281 -2.097656 L 3.925781 -1.8125 L 3.851562 -1.710938 L 3.789062 -1.605469 L 3.707031 -1.480469 L 3.488281 -1.3125 L 3.363281 -1.257812 L 3.253906 -1.195312 L 3.128906 -1.183594 L 2.996094 -1.148438 Z M 2.59375 -1.132812 "/></g></g></g><g fill="#000000" fill-opacity="1"><g transform="translate(74.486517, 16.106993)"><g><path d="M 1.871094 0.0625 L 2.417969 0.078125 L 2.558594 0.0625 L 2.695312 0.0273438 L 2.835938 0.0078125 L 2.976562 -0.046875 L 3.101562 -0.0625 L 3.234375 -0.125 L 3.707031 -0.410156 L 3.90625 -0.617188 L 3.976562 -0.714844 L 4.054688 -0.867188 L 4.09375 -0.992188 L 4.136719 -1.113281 L 4.179688 -1.460938 L 4.164062 -1.683594 L 4.058594 -2.085938 L 3.984375 -2.195312 L 3.800781 -2.40625 L 3.675781 -2.515625 L 3.566406 -2.570312 L 3.441406 -2.648438 L 2.898438 -2.816406 L 2.761719 -2.835938 L 2.621094 -2.84375 L 2.476562 -2.871094 L 2.273438 -2.871094 L 1.90625 -2.949219 L 1.648438 -3.074219 L 1.542969 -3.167969 L 1.515625 -3.378906 L 1.550781 -3.566406 L 1.632812 -3.65625 L 1.738281 -3.734375 L 1.847656 -3.796875 L 1.972656 -3.824219 L 2.195312 -3.832031 L 2.417969 -3.800781 L 2.542969 -3.769531 L 2.667969 -3.683594 L 2.789062 -3.585938 L 2.890625 -3.449219 L 3.042969 -3.359375 L 3.371094 -3.386719 L 3.558594 -3.371094 L 3.699219 -3.371094 L 3.824219 -3.359375 L 3.957031 -3.453125 L 4.011719 -3.574219 L 3.984375 -3.707031 L 3.96875 -3.835938 L 3.773438 -4.199219 L 3.621094 -4.40625 L 3.164062 -4.726562 L 2.773438 -4.859375 L 2.503906 -4.914062 L 1.96875 -4.929688 L 1.8125 -4.886719 L 1.675781 -4.878906 L 1.550781 -4.859375 L 1.285156 -4.777344 L 1.050781 -4.636719 L 0.714844 -4.40625 L 0.472656 -4.082031 L 0.347656 -3.699219 L 0.328125 -3.359375 L 0.332031 -3.140625 L 0.382812 -2.863281 L 0.492188 -2.621094 L 0.75 -2.300781 L 1.222656 -2.042969 L 1.472656 -1.960938 L 2.566406 -1.835938 L 2.816406 -1.71875 L 2.90625 -1.632812 L 2.949219 -1.460938 L 2.890625 -1.285156 L 2.800781 -1.183594 L 2.566406 -1.078125 L 2.351562 -1.0625 L 2.222656 -1.042969 L 1.871094 -1.078125 L 1.75 -1.140625 L 1.632812 -1.214844 L 1.402344 -1.464844 L 1.265625 -1.523438 L 1.140625 -1.507812 L 1.007812 -1.53125 L 0.472656 -1.5 L 0.347656 -1.445312 L 0.292969 -1.300781 L 0.3125 -1.160156 L 0.339844 -1.023438 L 0.382812 -0.898438 L 0.515625 -0.640625 L 0.613281 -0.550781 L 0.703125 -0.445312 L 0.945312 -0.292969 L 1.042969 -0.1875 L 1.175781 -0.125 L 1.3125 -0.0820312 L 1.585938 0.015625 Z M 1.871094 0.0625 "/></g></g></g><g fill="#000000" fill-opacity="1"><g transform="translate(78.921639, 16.106993)"><g><path d="M 1.8125 0.015625 L 2.28125 0 L 2.480469 -0.0703125 L 2.550781 -0.265625 L 2.570312 -0.625 L 2.550781 -0.890625 L 2.566406 -1.035156 L 2.558594 -1.3125 L 2.570312 -1.4375 L 2.550781 -1.59375 L 2.566406 -2.710938 L 2.542969 -2.855469 L 2.566406 -3.460938 L 2.621094 -3.671875 L 2.753906 -3.753906 L 3.023438 -3.769531 L 3.28125 -3.734375 L 3.425781 -3.753906 L 3.550781 -3.746094 L 3.671875 -3.824219 L 3.753906 -3.976562 L 3.761719 -4.636719 L 3.683594 -4.777344 L 3.550781 -4.867188 L 3.121094 -4.867188 L 2.988281 -4.878906 L 2.84375 -4.859375 L 2.710938 -4.871094 L 2.148438 -4.84375 L 2.007812 -4.871094 L 1.875 -4.878906 L 1.730469 -4.859375 L 1.578125 -4.871094 L 1.453125 -4.84375 L 1.042969 -4.867188 L 0.828125 -4.84375 L 0.339844 -4.871094 L 0.207031 -4.804688 L 0.125 -4.644531 L 0.132812 -4.503906 L 0.117188 -4.15625 L 0.132812 -3.941406 L 0.195312 -3.816406 L 0.320312 -3.746094 L 0.457031 -3.761719 L 1.121094 -3.746094 L 1.25 -3.675781 L 1.328125 -3.539062 L 1.3125 -3.316406 L 1.328125 -3.121094 L 1.320312 -2.96875 L 1.328125 -2.828125 L 1.3125 -2.632812 L 1.335938 -1.597656 L 1.320312 -1.460938 L 1.3125 -0.898438 L 1.328125 -0.75 L 1.320312 -0.347656 L 1.308594 -0.214844 L 1.398438 -0.0625 L 1.597656 0.0078125 Z M 1.8125 0.015625 "/></g></g></g><g fill="#000000" fill-opacity="1"><g transform="translate(41.286986, 22.916052)"><g><path d="M 0.75 -0.375 L 1.8125 -0.375 L 1.8125 0 L 0.328125 0 L 0.328125 -2.484375 L 0.75 -2.484375 Z M 0.75 -0.375 "/></g></g></g><g fill="#000000" fill-opacity="1"><g transform="translate(43.177988, 22.916052)"><g><path d="M 0.5 -2.140625 C 0.75 -2.378906 1.0625 -2.5 1.4375 -2.5 C 1.8125 -2.5 2.125 -2.378906 2.375 -2.140625 C 2.625 -1.898438 2.75 -1.597656 2.75 -1.234375 C 2.75 -0.878906 2.625 -0.582031 2.375 -0.34375 C 2.125 -0.101562 1.8125 0.015625 1.4375 0.015625 C 1.0625 0.015625 0.75 -0.101562 0.5 -0.34375 C 0.25 -0.582031 0.125 -0.878906 0.125 -1.234375 C 0.125 -1.597656 0.25 -1.898438 0.5 -2.140625 Z M 1.4375 -2.125 C 1.195312 -2.125 0.988281 -2.035156 0.8125 -1.859375 C 0.632812 -1.691406 0.546875 -1.484375 0.546875 -1.234375 C 0.546875 -0.992188 0.632812 -0.785156 0.8125 -0.609375 C 0.988281 -0.441406 1.195312 -0.359375 1.4375 -0.359375 C 1.6875 -0.359375 1.894531 -0.441406 2.0625 -0.609375 C 2.238281 -0.785156 2.328125 -0.992188 2.328125 -1.234375 C 2.328125 -1.484375 2.238281 -1.691406 2.0625 -1.859375 C 1.894531 -2.035156 1.6875 -2.125 1.4375 -2.125 Z M 1.4375 -2.125 "/></g></g></g><g fill="#000000" fill-opacity="1"><g transform="translate(46.046358, 22.916052)"><g><path d="M 2.03125 -1.21875 L 2.390625 -1.21875 L 2.390625 -0.3125 C 2.265625 -0.207031 2.113281 -0.125 1.9375 -0.0625 C 1.757812 -0.0078125 1.585938 0.015625 1.421875 0.015625 C 1.054688 0.015625 0.75 -0.101562 0.5 -0.34375 C 0.25 -0.582031 0.125 -0.878906 0.125 -1.234375 C 0.125 -1.597656 0.25 -1.898438 0.5 -2.140625 C 0.757812 -2.378906 1.078125 -2.5 1.453125 -2.5 C 1.628906 -2.5 1.800781 -2.46875 1.96875 -2.40625 C 2.132812 -2.34375 2.28125 -2.253906 2.40625 -2.140625 L 2.171875 -1.84375 C 1.960938 -2.03125 1.722656 -2.125 1.453125 -2.125 C 1.203125 -2.125 0.988281 -2.035156 0.8125 -1.859375 C 0.632812 -1.691406 0.546875 -1.484375 0.546875 -1.234375 C 0.546875 -0.992188 0.632812 -0.785156 0.8125 -0.609375 C 0.988281 -0.441406 1.203125 -0.359375 1.453125 -0.359375 C 1.640625 -0.359375 1.832031 -0.414062 2.03125 -0.53125 Z M 2.03125 -1.21875 "/></g></g></g><g fill="#000000" fill-opacity="1"><g transform="translate(48.698717, 22.916052)"><g><path d="M 0.75 0 L 0.328125 0 L 0.328125 -2.484375 L 0.75 -2.484375 Z M 0.75 0 "/></g></g></g><g fill="#000000" fill-opacity="1"><g transform="translate(49.768159, 22.916052)"><g><path d="M 1.140625 -2.5 C 1.460938 -2.5 1.753906 -2.414062 2.015625 -2.25 L 1.84375 -1.875 C 1.582031 -2.03125 1.335938 -2.109375 1.109375 -2.109375 C 0.984375 -2.109375 0.882812 -2.082031 0.8125 -2.03125 C 0.738281 -1.988281 0.703125 -1.925781 0.703125 -1.84375 C 0.703125 -1.757812 0.734375 -1.6875 0.796875 -1.625 C 0.867188 -1.570312 0.953125 -1.53125 1.046875 -1.5 C 1.148438 -1.476562 1.257812 -1.445312 1.375 -1.40625 C 1.488281 -1.363281 1.59375 -1.316406 1.6875 -1.265625 C 1.789062 -1.222656 1.875 -1.148438 1.9375 -1.046875 C 2.007812 -0.953125 2.046875 -0.835938 2.046875 -0.703125 C 2.046875 -0.484375 1.957031 -0.304688 1.78125 -0.171875 C 1.601562 -0.046875 1.378906 0.015625 1.109375 0.015625 C 0.921875 0.015625 0.738281 -0.0195312 0.5625 -0.09375 C 0.382812 -0.164062 0.226562 -0.257812 0.09375 -0.375 L 0.265625 -0.734375 C 0.398438 -0.617188 0.539062 -0.53125 0.6875 -0.46875 C 0.832031 -0.40625 0.972656 -0.375 1.109375 -0.375 C 1.253906 -0.375 1.367188 -0.398438 1.453125 -0.453125 C 1.535156 -0.515625 1.578125 -0.59375 1.578125 -0.6875 C 1.578125 -0.769531 1.539062 -0.835938 1.46875 -0.890625 C 1.40625 -0.953125 1.320312 -0.992188 1.21875 -1.015625 C 1.125 -1.046875 1.019531 -1.082031 0.90625 -1.125 C 0.789062 -1.164062 0.679688 -1.207031 0.578125 -1.25 C 0.484375 -1.289062 0.398438 -1.359375 0.328125 -1.453125 C 0.265625 -1.554688 0.234375 -1.675781 0.234375 -1.8125 C 0.234375 -2.019531 0.316406 -2.1875 0.484375 -2.3125 C 0.648438 -2.4375 0.867188 -2.5 1.140625 -2.5 Z M 1.140625 -2.5 "/></g></g></g><g fill="#000000" fill-opacity="1"><g transform="translate(51.970784, 22.916052)"><g><path d="M 2.015625 -2.109375 L 1.234375 -2.109375 L 1.234375 0 L 0.8125 0 L 0.8125 -2.109375 L 0.03125 -2.109375 L 0.03125 -2.484375 L 2.015625 -2.484375 Z M 2.015625 -2.109375 "/></g></g></g><g fill="#000000" fill-opacity="1"><g transform="translate(54.021137, 22.916052)"><g><path d="M 0.75 0 L 0.328125 0 L 0.328125 -2.484375 L 0.75 -2.484375 Z M 0.75 0 "/></g></g></g><g fill="#000000" fill-opacity="1"><g transform="translate(55.090579, 22.916052)"><g><path d="M 1.421875 -2.5 C 1.597656 -2.5 1.769531 -2.460938 1.9375 -2.390625 C 2.101562 -2.328125 2.25 -2.234375 2.375 -2.109375 L 2.125 -1.8125 C 2.03125 -1.90625 1.921875 -1.976562 1.796875 -2.03125 C 1.679688 -2.09375 1.5625 -2.125 1.4375 -2.125 C 1.1875 -2.125 0.972656 -2.035156 0.796875 -1.859375 C 0.628906 -1.691406 0.546875 -1.488281 0.546875 -1.25 C 0.546875 -1 0.628906 -0.789062 0.796875 -0.625 C 0.972656 -0.457031 1.1875 -0.375 1.4375 -0.375 C 1.6875 -0.375 1.914062 -0.472656 2.125 -0.671875 L 2.375 -0.390625 C 2.25 -0.265625 2.097656 -0.164062 1.921875 -0.09375 C 1.753906 -0.0195312 1.582031 0.015625 1.40625 0.015625 C 1.039062 0.015625 0.734375 -0.101562 0.484375 -0.34375 C 0.242188 -0.582031 0.125 -0.882812 0.125 -1.25 C 0.125 -1.601562 0.25 -1.898438 0.5 -2.140625 C 0.75 -2.378906 1.054688 -2.5 1.421875 -2.5 Z M 1.421875 -2.5 "/></g></g></g><g fill="#000000" fill-opacity="1"><g transform="translate(57.558795, 22.916052)"><g><path d="M 1.140625 -2.5 C 1.460938 -2.5 1.753906 -2.414062 2.015625 -2.25 L 1.84375 -1.875 C 1.582031 -2.03125 1.335938 -2.109375 1.109375 -2.109375 C 0.984375 -2.109375 0.882812 -2.082031 0.8125 -2.03125 C 0.738281 -1.988281 0.703125 -1.925781 0.703125 -1.84375 C 0.703125 -1.757812 0.734375 -1.6875 0.796875 -1.625 C 0.867188 -1.570312 0.953125 -1.53125 1.046875 -1.5 C 1.148438 -1.476562 1.257812 -1.445312 1.375 -1.40625 C 1.488281 -1.363281 1.59375 -1.316406 1.6875 -1.265625 C 1.789062 -1.222656 1.875 -1.148438 1.9375 -1.046875 C 2.007812 -0.953125 2.046875 -0.835938 2.046875 -0.703125 C 2.046875 -0.484375 1.957031 -0.304688 1.78125 -0.171875 C 1.601562 -0.046875 1.378906 0.015625 1.109375 0.015625 C 0.921875 0.015625 0.738281 -0.0195312 0.5625 -0.09375 C 0.382812 -0.164062 0.226562 -0.257812 0.09375 -0.375 L 0.265625 -0.734375 C 0.398438 -0.617188 0.539062 -0.53125 0.6875 -0.46875 C 0.832031 -0.40625 0.972656 -0.375 1.109375 -0.375 C 1.253906 -0.375 1.367188 -0.398438 1.453125 -0.453125 C 1.535156 -0.515625 1.578125 -0.59375 1.578125 -0.6875 C 1.578125 -0.769531 1.539062 -0.835938 1.46875 -0.890625 C 1.40625 -0.953125 1.320312 -0.992188 1.21875 -1.015625 C 1.125 -1.046875 1.019531 -1.082031 0.90625 -1.125 C 0.789062 -1.164062 0.679688 -1.207031 0.578125 -1.25 C 0.484375 -1.289062 0.398438 -1.359375 0.328125 -1.453125 C 0.265625 -1.554688 0.234375 -1.675781 0.234375 -1.8125 C 0.234375 -2.019531 0.316406 -2.1875 0.484375 -2.3125 C 0.648438 -2.4375 0.867188 -2.5 1.140625 -2.5 Z M 1.140625 -2.5 "/></g></g></g><g fill="#000000" fill-opacity="1"><g transform="translate(59.76142, 22.916052)"><g/></g></g><g fill="#000000" fill-opacity="1"><g transform="translate(60.67505, 22.916052)"><g><path d="M 1.421875 -2.5 C 1.597656 -2.5 1.769531 -2.460938 1.9375 -2.390625 C 2.101562 -2.328125 2.25 -2.234375 2.375 -2.109375 L 2.125 -1.8125 C 2.03125 -1.90625 1.921875 -1.976562 1.796875 -2.03125 C 1.679688 -2.09375 1.5625 -2.125 1.4375 -2.125 C 1.1875 -2.125 0.972656 -2.035156 0.796875 -1.859375 C 0.628906 -1.691406 0.546875 -1.488281 0.546875 -1.25 C 0.546875 -1 0.628906 -0.789062 0.796875 -0.625 C 0.972656 -0.457031 1.1875 -0.375 1.4375 -0.375 C 1.6875 -0.375 1.914062 -0.472656 2.125 -0.671875 L 2.375 -0.390625 C 2.25 -0.265625 2.097656 -0.164062 1.921875 -0.09375 C 1.753906 -0.0195312 1.582031 0.015625 1.40625 0.015625 C 1.039062 0.015625 0.734375 -0.101562 0.484375 -0.34375 C 0.242188 -0.582031 0.125 -0.882812 0.125 -1.25 C 0.125 -1.601562 0.25 -1.898438 0.5 -2.140625 C 0.75 -2.378906 1.054688 -2.5 1.421875 -2.5 Z M 1.421875 -2.5 "/></g></g></g><g fill="#000000" fill-opacity="1"><g transform="translate(63.143266, 22.916052)"><g><path d="M 0.5 -2.140625 C 0.75 -2.378906 1.0625 -2.5 1.4375 -2.5 C 1.8125 -2.5 2.125 -2.378906 2.375 -2.140625 C 2.625 -1.898438 2.75 -1.597656 2.75 -1.234375 C 2.75 -0.878906 2.625 -0.582031 2.375 -0.34375 C 2.125 -0.101562 1.8125 0.015625 1.4375 0.015625 C 1.0625 0.015625 0.75 -0.101562 0.5 -0.34375 C 0.25 -0.582031 0.125 -0.878906 0.125 -1.234375 C 0.125 -1.597656 0.25 -1.898438 0.5 -2.140625 Z M 1.4375 -2.125 C 1.195312 -2.125 0.988281 -2.035156 0.8125 -1.859375 C 0.632812 -1.691406 0.546875 -1.484375 0.546875 -1.234375 C 0.546875 -0.992188 0.632812 -0.785156 0.8125 -0.609375 C 0.988281 -0.441406 1.195312 -0.359375 1.4375 -0.359375 C 1.6875 -0.359375 1.894531 -0.441406 2.0625 -0.609375 C 2.238281 -0.785156 2.328125 -0.992188 2.328125 -1.234375 C 2.328125 -1.484375 2.238281 -1.691406 2.0625 -1.859375 C 1.894531 -2.035156 1.6875 -2.125 1.4375 -2.125 Z M 1.4375 -2.125 "/></g></g></g><g fill="#000000" fill-opacity="1"><g transform="translate(66.011635, 22.916052)"><g><path d="M 2.953125 0 L 2.5625 0 L 2.5625 -1.859375 L 1.78125 -0.265625 L 1.5 -0.265625 L 0.71875 -1.859375 L 0.71875 0 L 0.328125 0 L 0.328125 -2.484375 L 0.828125 -2.484375 L 1.640625 -0.828125 L 2.453125 -2.484375 L 2.953125 -2.484375 Z M 2.953125 0 "/></g></g></g><g fill="#000000" fill-opacity="1"><g transform="translate(69.287246, 22.916052)"><g><path d="M 0.328125 -2.484375 L 1.3125 -2.484375 C 1.625 -2.484375 1.863281 -2.410156 2.03125 -2.265625 C 2.207031 -2.117188 2.296875 -1.910156 2.296875 -1.640625 C 2.296875 -1.359375 2.207031 -1.140625 2.03125 -0.984375 C 1.863281 -0.828125 1.625 -0.75 1.3125 -0.75 L 0.75 -0.75 L 0.75 0 L 0.328125 0 Z M 0.75 -2.109375 L 0.75 -1.125 L 1.296875 -1.125 C 1.691406 -1.125 1.890625 -1.289062 1.890625 -1.625 C 1.890625 -1.945312 1.691406 -2.109375 1.296875 -2.109375 Z M 0.75 -2.109375 "/></g></g></g><g fill="#000000" fill-opacity="1"><g transform="translate(71.670471, 22.916052)"><g><path d="M 1.921875 -0.5625 L 0.671875 -0.5625 L 0.4375 0 L 0 0 L 1.09375 -2.484375 L 1.53125 -2.484375 L 2.609375 0 L 2.171875 0 Z M 1.765625 -0.9375 L 1.296875 -2.03125 L 0.828125 -0.9375 Z M 1.765625 -0.9375 "/></g></g></g><g fill="#000000" fill-opacity="1"><g transform="translate(74.283876, 22.916052)"><g><path d="M 2.484375 0 L 2.0625 0 L 0.75 -1.78125 L 0.75 0 L 0.328125 0 L 0.328125 -2.484375 L 0.734375 -2.484375 L 2.0625 -0.703125 L 2.0625 -2.484375 L 2.484375 -2.484375 Z M 2.484375 0 "/></g></g></g><g fill="#000000" fill-opacity="1"><g transform="translate(77.088508, 22.916052)"><g><path d="M 1.34375 -0.828125 L 1.34375 0 L 0.921875 0 L 0.921875 -0.8125 L 0 -2.484375 L 0.421875 -2.484375 L 1.140625 -1.265625 L 1.828125 -2.484375 L 2.25 -2.484375 Z M 1.34375 -0.828125 "/></g></g></g></svg>