<svg 
    xmlns="http://www.w3.org/2000/svg" 
    xmlns:xlink="http://www.w3.org/1999/xlink" 
    width="118" 
    height="60" 
    zoomAndPan="magnify" 
    viewBox="0 0 375 374.999991" 
    preserveAspectRatio="xMidYMid meet" 
    version="1.0"
>
    <defs><g/><clipPath id="6ba3bede65"><path d="M 60 52 L 315 52 L 315 202.867188 L 60 202.867188 Z M 60 52 " clip-rule="nonzero"/></clipPath><clipPath id="245d9d3d02"><path d="M 39.359375 31.867188 L 335.609375 31.867188 L 335.609375 202.867188 L 39.359375 202.867188 Z M 39.359375 31.867188 " clip-rule="nonzero"/></clipPath><clipPath id="073c807ece"><path d="M 65.207031 115.105469 L 285.707031 115.105469 L 285.707031 204 L 65.207031 204 Z M 65.207031 115.105469 " clip-rule="nonzero"/></clipPath><clipPath id="0be551cacb"><path d="M 282.5625 186.554688 L 281.59375 186.554688 L 284.324219 173.519531 C 284.9375 170.789062 284.234375 166.476562 282.914062 164.007812 L 264.769531 131.421875 C 263.363281 128.957031 259.925781 126.933594 257.109375 126.933594 L 222.585938 126.933594 C 219.769531 126.933594 216.949219 129.222656 216.421875 131.953125 L 202.15625 198.882812 C 201.539062 201.613281 203.386719 203.902344 206.207031 203.902344 L 222.851562 203.902344 C 224.699219 195.273438 233.15625 188.316406 241.785156 188.316406 C 250.417969 188.316406 255.875 195.273438 254.113281 203.902344 L 272.875 203.902344 C 273.050781 203.902344 273.136719 203.902344 273.3125 203.902344 C 273.402344 203.902344 273.578125 203.902344 273.667969 203.902344 L 278.949219 203.902344 C 280.800781 203.902344 282.648438 202.40625 283.089844 200.558594 L 285.378906 189.902344 C 285.730469 188.050781 284.5 186.554688 282.5625 186.554688 Z M 271.90625 163.039062 C 271.640625 164.359375 269.878906 165.507812 267.941406 165.507812 L 225.316406 165.507812 C 223.46875 165.507812 222.234375 164.007812 222.585938 162.160156 L 227.871094 137.234375 C 228.222656 135.386719 230.160156 133.890625 232.011719 133.890625 L 254.027344 133.890625 C 255.875 133.890625 258.167969 135.210938 259.136719 136.882812 L 270.761719 157.757812 C 271.730469 159.253906 272.167969 161.632812 271.90625 163.039062 Z M 93.917969 182.945312 L 198.894531 182.945312 L 195.375 199.414062 L 152.484375 199.414062 L 141.5625 188.757812 L 92.683594 188.757812 Z M 203.738281 160.398438 L 200.21875 176.867188 L 160.585938 176.867188 L 149.753906 166.296875 L 83.613281 166.296875 L 84.847656 160.398438 Z M 157.679688 143.664062 L 74.367188 143.664062 L 75.601562 137.851562 L 208.496094 137.851562 L 204.972656 154.320312 L 168.601562 154.320312 Z M 165.34375 121.121094 L 65.207031 121.121094 L 66.441406 115.308594 L 213.339844 115.308594 L 209.816406 131.777344 L 176.261719 131.777344 Z M 165.34375 121.121094 " clip-rule="nonzero"/></clipPath></defs><g clip-path="url(#6ba3bede65)"><path fill="#000000" d="M 60.167969 202.632812 L 314.820312 202.632812 L 314.820312 179.800781 C 314.820312 109.78125 257.511719 52.472656 187.496094 52.472656 C 117.46875 52.472656 60.167969 109.773438 60.167969 179.800781 Z M 60.167969 202.632812 " fill-opacity="1" fill-rule="evenodd"/></g><g clip-path="url(#245d9d3d02)"><path fill="#000000" d="M 47.546875 202.632812 L 47.546875 179.800781 C 47.546875 102.824219 110.523438 39.851562 187.496094 39.851562 C 264.476562 39.851562 327.445312 102.816406 327.445312 179.800781 L 327.445312 202.632812 L 335.425781 179.800781 C 335.425781 98.445312 268.851562 31.867188 187.496094 31.867188 C 106.140625 31.867188 39.5625 98.445312 39.5625 179.800781 Z M 47.546875 202.632812 " fill-opacity="1" fill-rule="evenodd"/></g><g clip-path="url(#073c807ece)"><g clip-path="url(#0be551cacb)"><path fill="#ffffff" d="M 65.207031 115.308594 L 65.207031 203.902344 L 285.707031 203.902344 L 285.707031 115.308594 Z M 65.207031 115.308594 " fill-opacity="1" fill-rule="nonzero"/></g></g><g fill="#000000" fill-opacity="1"><g transform="translate(23.18305, 274.239216)"><g><path d="M 32.019531 -43.410156 L 39.1875 -43.410156 L 39.1875 0 L 50.023438 0 L 50.023438 -43.410156 C 50.023438 -44.925781 49.78125 -46.277344 49.226562 -47.550781 C 48.667969 -48.90625 47.871094 -50.023438 46.914062 -50.976562 C 45.878906 -52.011719 44.765625 -52.730469 43.410156 -53.289062 C 42.054688 -53.84375 40.703125 -54.164062 39.1875 -54.164062 L 32.019531 -54.164062 C 30.507812 -54.164062 29.152344 -53.84375 27.796875 -53.289062 C 27.402344 -53.128906 27.003906 -52.890625 26.605469 -52.730469 C 26.207031 -52.890625 25.808594 -53.128906 25.410156 -53.289062 C 24.054688 -53.84375 22.699219 -54.164062 21.1875 -54.164062 L 14.019531 -54.164062 C 12.503906 -54.164062 11.152344 -53.84375 9.796875 -53.289062 C 8.441406 -52.730469 7.328125 -52.011719 6.371094 -50.976562 C 5.335938 -50.023438 4.621094 -48.90625 4.0625 -47.550781 C 3.503906 -46.277344 3.1875 -44.925781 3.1875 -43.410156 L 3.1875 0 L 14.019531 0 L 14.019531 -43.410156 L 21.1875 -43.410156 L 21.1875 0 L 32.019531 0 Z M 32.019531 -43.410156 "/></g></g></g><g fill="#000000" fill-opacity="1"><g transform="translate(76.380995, 274.239216)"><g><path d="M 32.019531 -43.410156 C 32.019531 -44.925781 31.78125 -46.277344 31.222656 -47.550781 C 30.667969 -48.90625 29.871094 -50.023438 28.914062 -50.976562 C 27.878906 -52.011719 26.761719 -52.730469 25.410156 -53.289062 C 24.054688 -53.84375 22.699219 -54.164062 21.1875 -54.164062 L 14.019531 -54.164062 C 12.503906 -54.164062 11.152344 -53.84375 9.796875 -53.289062 C 8.441406 -52.730469 7.328125 -52.011719 6.371094 -50.976562 C 5.335938 -50.023438 4.621094 -48.90625 4.0625 -47.550781 C 3.503906 -46.277344 3.1875 -44.925781 3.1875 -43.410156 L 3.1875 0 L 14.019531 0 L 14.019531 -21.664062 L 21.1875 -21.664062 L 21.1875 0 L 32.019531 0 Z M 14.019531 -32.5 L 14.019531 -43.410156 L 21.1875 -43.410156 L 21.1875 -32.5 Z M 14.019531 -32.5 "/></g></g></g><g fill="#000000" fill-opacity="1"><g transform="translate(111.580841, 274.239216)"><g><path d="M 32.101562 -10.832031 L 32.101562 -32.5 L 17.761719 -32.5 L 17.761719 -21.664062 L 21.265625 -21.664062 L 21.265625 -10.832031 L 14.019531 -10.832031 L 14.019531 -43.332031 L 21.265625 -43.332031 L 21.265625 -36.164062 L 32.101562 -36.164062 L 32.101562 -43.332031 C 32.101562 -44.84375 31.859375 -46.199219 31.304688 -47.550781 C 30.746094 -48.90625 29.949219 -50.023438 28.992188 -51.058594 C 27.957031 -52.011719 26.84375 -52.808594 25.488281 -53.367188 C 24.132812 -53.925781 22.78125 -54.164062 21.265625 -54.164062 L 14.019531 -54.164062 C 12.503906 -54.164062 11.152344 -53.925781 9.796875 -53.367188 C 8.441406 -52.808594 7.328125 -52.011719 6.371094 -51.058594 C 5.335938 -50.023438 4.621094 -48.90625 4.0625 -47.550781 C 3.503906 -46.199219 3.1875 -44.84375 3.1875 -43.332031 L 3.1875 -10.832031 C 3.1875 -9.320312 3.503906 -7.964844 4.0625 -6.609375 C 4.621094 -5.257812 5.335938 -4.140625 6.371094 -3.1875 C 7.328125 -2.152344 8.441406 -1.433594 9.796875 -0.875 C 11.152344 -0.320312 12.503906 0 14.019531 0 L 21.265625 0 C 22.78125 0 24.132812 -0.320312 25.488281 -0.875 C 26.84375 -1.433594 27.957031 -2.152344 28.992188 -3.1875 C 29.949219 -4.140625 30.746094 -5.257812 31.304688 -6.609375 C 31.859375 -7.964844 32.101562 -9.320312 32.101562 -10.832031 Z M 32.101562 -10.832031 "/></g></g></g><g fill="#000000" fill-opacity="1"><g transform="translate(146.860309, 274.239216)"><g><path d="M 14.019531 -54.164062 L 3.1875 -54.164062 L 3.1875 0 L 14.019531 0 Z M 14.019531 -54.164062 "/></g></g></g><g fill="#000000" fill-opacity="1"><g transform="translate(164.062035, 274.239216)"><g><path d="M 32.019531 -10.753906 L 32.019531 -18 L 21.1875 -18 L 21.1875 -10.753906 L 14.019531 -10.753906 L 14.019531 -43.332031 L 21.1875 -43.332031 L 21.1875 -36.082031 L 32.019531 -36.082031 L 32.019531 -43.332031 C 32.019531 -44.84375 31.78125 -46.199219 31.222656 -47.550781 C 30.667969 -48.90625 29.871094 -50.023438 28.914062 -51.058594 C 27.878906 -52.011719 26.761719 -52.808594 25.410156 -53.367188 C 24.054688 -53.925781 22.699219 -54.164062 21.1875 -54.164062 L 14.019531 -54.164062 C 12.503906 -54.164062 11.152344 -53.925781 9.796875 -53.367188 C 8.441406 -52.808594 7.328125 -52.011719 6.371094 -51.058594 C 5.335938 -50.023438 4.621094 -48.90625 4.0625 -47.550781 C 3.503906 -46.199219 3.1875 -44.84375 3.1875 -43.332031 L 3.1875 -10.753906 C 3.1875 -9.238281 3.503906 -7.886719 4.0625 -6.609375 C 4.621094 -5.257812 5.335938 -4.140625 6.371094 -3.1875 C 7.328125 -2.152344 8.441406 -1.433594 9.796875 -0.875 C 11.152344 -0.320312 12.503906 0 14.019531 0 L 21.1875 0 C 22.699219 0 24.054688 -0.320312 25.410156 -0.875 C 26.761719 -1.433594 27.878906 -2.152344 28.914062 -3.1875 C 29.871094 -4.140625 30.667969 -5.257812 31.222656 -6.609375 C 31.78125 -7.886719 32.019531 -9.238281 32.019531 -10.753906 Z M 32.019531 -10.753906 "/></g></g></g><g fill="#000000" fill-opacity="1"><g transform="translate(198.465508, 274.239216)"><g/></g></g><g fill="#000000" fill-opacity="1"><g transform="translate(217.578554, 274.239216)"><g><path d="M 32.019531 -32.5 L 32.019531 -43.332031 C 32.019531 -44.84375 31.78125 -46.199219 31.222656 -47.550781 C 30.667969 -48.90625 29.871094 -50.023438 28.914062 -51.058594 C 27.878906 -52.011719 26.761719 -52.808594 25.410156 -53.367188 C 24.054688 -53.925781 22.699219 -54.164062 21.1875 -54.164062 L 6.453125 -54.164062 C 4.621094 -54.164062 3.1875 -52.730469 3.1875 -50.898438 L 3.1875 0 L 14.019531 0 L 14.019531 -21.664062 L 21.1875 -21.664062 C 22.699219 -21.664062 24.054688 -21.984375 25.410156 -22.542969 C 26.761719 -23.097656 27.878906 -23.816406 28.914062 -24.851562 C 29.871094 -25.808594 30.667969 -26.921875 31.222656 -28.277344 C 31.78125 -29.628906 32.019531 -30.984375 32.019531 -32.5 Z M 14.019531 -32.5 L 14.019531 -43.332031 L 21.1875 -43.332031 L 21.1875 -32.5 Z M 14.019531 -32.5 "/></g></g></g><g fill="#000000" fill-opacity="1"><g transform="translate(251.982027, 274.239216)"><g><path d="M 32.179688 -10.753906 L 32.179688 -43.332031 C 32.179688 -44.84375 31.941406 -46.199219 31.382812 -47.550781 C 30.824219 -48.90625 30.027344 -50.023438 29.074219 -51.058594 C 28.039062 -52.011719 26.921875 -52.808594 25.570312 -53.367188 C 24.214844 -53.925781 22.859375 -54.164062 21.347656 -54.164062 L 13.9375 -54.164062 C 12.425781 -54.164062 11.070312 -53.925781 9.796875 -53.367188 C 8.441406 -52.808594 7.328125 -52.011719 6.371094 -51.058594 C 5.335938 -50.023438 4.621094 -48.90625 4.0625 -47.550781 C 3.503906 -46.199219 3.1875 -44.84375 3.1875 -43.332031 L 3.1875 -10.753906 C 3.1875 -9.238281 3.503906 -7.886719 4.0625 -6.609375 C 4.621094 -5.257812 5.335938 -4.140625 6.371094 -3.1875 C 7.328125 -2.152344 8.441406 -1.433594 9.796875 -0.875 C 11.070312 -0.320312 12.425781 0 13.9375 0 L 21.347656 0 C 22.859375 0 24.214844 -0.320312 25.570312 -0.875 C 26.921875 -1.433594 28.039062 -2.152344 29.074219 -3.1875 C 30.027344 -4.140625 30.824219 -5.257812 31.382812 -6.609375 C 31.941406 -7.886719 32.179688 -9.238281 32.179688 -10.753906 Z M 14.019531 -10.753906 L 14.019531 -43.332031 L 21.347656 -43.332031 L 21.347656 -10.753906 Z M 14.019531 -10.753906 "/></g></g></g><g fill="#000000" fill-opacity="1"><g transform="translate(287.341139, 274.239216)"><g><path d="M 30.507812 -10.832031 L 30.507812 -14.976562 C 30.507812 -16.328125 30.269531 -17.601562 29.789062 -18.796875 C 29.3125 -19.992188 28.59375 -21.109375 27.71875 -22.144531 L 12.425781 -39.1875 L 12.425781 -43.332031 L 19.675781 -43.332031 L 19.675781 -36.164062 L 30.507812 -36.164062 L 30.507812 -43.332031 C 30.507812 -44.84375 30.269531 -46.199219 29.710938 -47.550781 C 29.152344 -48.90625 28.355469 -50.023438 27.402344 -51.058594 C 26.363281 -52.011719 25.25 -52.808594 23.894531 -53.367188 C 22.542969 -53.925781 21.1875 -54.164062 19.675781 -54.164062 L 12.425781 -54.164062 C 10.914062 -54.164062 9.558594 -53.925781 8.203125 -53.367188 C 6.851562 -52.808594 5.734375 -52.011719 4.777344 -51.058594 C 3.742188 -50.023438 3.027344 -48.90625 2.46875 -47.550781 C 1.910156 -46.199219 1.59375 -44.84375 1.59375 -43.332031 L 1.59375 -39.1875 C 1.59375 -37.835938 1.832031 -36.558594 2.308594 -35.367188 C 2.789062 -34.089844 3.503906 -32.976562 4.382812 -31.941406 L 19.675781 -14.976562 L 19.675781 -10.832031 L 12.425781 -10.832031 L 12.425781 -18.160156 L 1.59375 -18.160156 L 1.59375 -10.832031 C 1.59375 -9.320312 1.910156 -7.964844 2.46875 -6.609375 C 3.027344 -5.257812 3.742188 -4.140625 4.777344 -3.1875 C 5.734375 -2.152344 6.851562 -1.433594 8.203125 -0.875 C 9.558594 -0.320312 10.914062 0 12.425781 0 L 19.675781 0 C 21.1875 0 22.542969 -0.320312 23.894531 -0.875 C 25.25 -1.433594 26.363281 -2.152344 27.402344 -3.1875 C 28.355469 -4.140625 29.152344 -5.257812 29.710938 -6.609375 C 30.269531 -7.964844 30.507812 -9.320312 30.507812 -10.832031 Z M 30.507812 -10.832031 "/></g></g></g><g fill="#000000" fill-opacity="1"><g transform="translate(319.435119, 274.239216)"><g><path d="M 21.664062 -43.332031 L 29.949219 -43.332031 L 29.949219 -54.164062 L 2.390625 -54.164062 L 2.390625 -43.332031 L 10.832031 -43.332031 L 10.832031 0 L 21.664062 0 Z M 21.664062 -43.332031 "/></g></g></g><g fill="#000000" fill-opacity="1"><g transform="translate(53.89121, 314.55454)"><g><path d="M 5.21875 -2.65625 L 12.765625 -2.65625 L 12.765625 0 L 2.28125 0 L 2.28125 -17.40625 L 5.21875 -17.40625 Z M 5.21875 -2.65625 "/></g></g></g><g fill="#000000" fill-opacity="1"><g transform="translate(67.166535, 314.55454)"><g><path d="M 3.5 -14.953125 C 5.28125 -16.640625 7.472656 -17.484375 10.078125 -17.484375 C 12.679688 -17.484375 14.867188 -16.640625 16.640625 -14.953125 C 18.410156 -13.273438 19.296875 -11.191406 19.296875 -8.703125 C 19.296875 -6.210938 18.410156 -4.117188 16.640625 -2.421875 C 14.867188 -0.722656 12.679688 0.125 10.078125 0.125 C 7.472656 0.125 5.28125 -0.722656 3.5 -2.421875 C 1.726562 -4.117188 0.84375 -6.210938 0.84375 -8.703125 C 0.84375 -11.191406 1.726562 -13.273438 3.5 -14.953125 Z M 10.09375 -14.84375 C 8.375 -14.84375 6.898438 -14.25 5.671875 -13.0625 C 4.441406 -11.882812 3.828125 -10.429688 3.828125 -8.703125 C 3.828125 -6.984375 4.441406 -5.519531 5.671875 -4.3125 C 6.910156 -3.113281 8.382812 -2.515625 10.09375 -2.515625 C 11.800781 -2.515625 13.257812 -3.113281 14.46875 -4.3125 C 15.6875 -5.519531 16.296875 -6.984375 16.296875 -8.703125 C 16.296875 -10.429688 15.6875 -11.882812 14.46875 -13.0625 C 13.257812 -14.25 11.800781 -14.84375 10.09375 -14.84375 Z M 10.09375 -14.84375 "/></g></g></g><g fill="#000000" fill-opacity="1"><g transform="translate(87.303274, 314.55454)"><g><path d="M 14.203125 -8.5625 L 16.765625 -8.5625 L 16.765625 -2.140625 C 15.867188 -1.460938 14.8125 -0.914062 13.59375 -0.5 C 12.375 -0.0820312 11.175781 0.125 10 0.125 C 7.425781 0.125 5.253906 -0.722656 3.484375 -2.421875 C 1.722656 -4.117188 0.84375 -6.210938 0.84375 -8.703125 C 0.84375 -11.191406 1.738281 -13.273438 3.53125 -14.953125 C 5.320312 -16.640625 7.535156 -17.484375 10.171875 -17.484375 C 11.398438 -17.484375 12.609375 -17.265625 13.796875 -16.828125 C 14.984375 -16.390625 16.003906 -15.796875 16.859375 -15.046875 L 15.203125 -12.890625 C 13.773438 -14.210938 12.097656 -14.875 10.171875 -14.875 C 8.398438 -14.875 6.898438 -14.273438 5.671875 -13.078125 C 4.441406 -11.890625 3.828125 -10.429688 3.828125 -8.703125 C 3.828125 -6.960938 4.441406 -5.492188 5.671875 -4.296875 C 6.910156 -3.109375 8.421875 -2.515625 10.203125 -2.515625 C 11.546875 -2.515625 12.878906 -2.910156 14.203125 -3.703125 Z M 14.203125 -8.5625 "/></g></g></g><g fill="#000000" fill-opacity="1"><g transform="translate(105.923536, 314.55454)"><g><path d="M 5.21875 0 L 2.28125 0 L 2.28125 -17.40625 L 5.21875 -17.40625 Z M 5.21875 0 "/></g></g></g><g fill="#000000" fill-opacity="1"><g transform="translate(113.431307, 314.55454)"><g><path d="M 8.015625 -17.53125 C 10.265625 -17.53125 12.296875 -16.9375 14.109375 -15.75 L 12.890625 -13.15625 C 11.109375 -14.238281 9.40625 -14.78125 7.78125 -14.78125 C 6.90625 -14.78125 6.210938 -14.617188 5.703125 -14.296875 C 5.203125 -13.984375 4.953125 -13.535156 4.953125 -12.953125 C 4.953125 -12.378906 5.179688 -11.890625 5.640625 -11.484375 C 6.109375 -11.078125 6.691406 -10.773438 7.390625 -10.578125 C 8.085938 -10.390625 8.84375 -10.148438 9.65625 -9.859375 C 10.46875 -9.566406 11.21875 -9.257812 11.90625 -8.9375 C 12.601562 -8.613281 13.179688 -8.109375 13.640625 -7.421875 C 14.097656 -6.734375 14.328125 -5.898438 14.328125 -4.921875 C 14.328125 -3.398438 13.71875 -2.179688 12.5 -1.265625 C 11.28125 -0.359375 9.703125 0.09375 7.765625 0.09375 C 6.429688 0.09375 5.144531 -0.148438 3.90625 -0.640625 C 2.664062 -1.140625 1.578125 -1.8125 0.640625 -2.65625 L 1.921875 -5.203125 C 2.796875 -4.390625 3.757812 -3.757812 4.8125 -3.3125 C 5.863281 -2.875 6.863281 -2.65625 7.8125 -2.65625 C 8.84375 -2.65625 9.640625 -2.84375 10.203125 -3.21875 C 10.773438 -3.59375 11.0625 -4.113281 11.0625 -4.78125 C 11.0625 -5.375 10.828125 -5.875 10.359375 -6.28125 C 9.898438 -6.6875 9.320312 -6.984375 8.625 -7.171875 C 7.9375 -7.367188 7.1875 -7.601562 6.375 -7.875 C 5.5625 -8.144531 4.804688 -8.429688 4.109375 -8.734375 C 3.410156 -9.046875 2.828125 -9.539062 2.359375 -10.21875 C 1.898438 -10.90625 1.671875 -11.726562 1.671875 -12.6875 C 1.671875 -14.164062 2.25 -15.34375 3.40625 -16.21875 C 4.570312 -17.09375 6.109375 -17.53125 8.015625 -17.53125 Z M 8.015625 -17.53125 "/></g></g></g><g fill="#000000" fill-opacity="1"><g transform="translate(128.894333, 314.55454)"><g><path d="M 14.171875 -14.78125 L 8.65625 -14.78125 L 8.65625 0 L 5.71875 0 L 5.71875 -14.78125 L 0.21875 -14.78125 L 0.21875 -17.40625 L 14.171875 -17.40625 Z M 14.171875 -14.78125 "/></g></g></g><g fill="#000000" fill-opacity="1"><g transform="translate(143.288361, 314.55454)"><g><path d="M 5.21875 0 L 2.28125 0 L 2.28125 -17.40625 L 5.21875 -17.40625 Z M 5.21875 0 "/></g></g></g><g fill="#000000" fill-opacity="1"><g transform="translate(150.796133, 314.55454)"><g><path d="M 10 -17.484375 C 11.226562 -17.484375 12.425781 -17.242188 13.59375 -16.765625 C 14.757812 -16.296875 15.765625 -15.640625 16.609375 -14.796875 L 14.90625 -12.65625 C 14.269531 -13.34375 13.519531 -13.882812 12.65625 -14.28125 C 11.800781 -14.675781 10.929688 -14.875 10.046875 -14.875 C 8.304688 -14.875 6.832031 -14.28125 5.625 -13.09375 C 4.425781 -11.90625 3.828125 -10.457031 3.828125 -8.75 C 3.828125 -7.03125 4.425781 -5.578125 5.625 -4.390625 C 6.832031 -3.203125 8.304688 -2.609375 10.046875 -2.609375 C 11.859375 -2.609375 13.476562 -3.296875 14.90625 -4.671875 L 16.640625 -2.734375 C 15.742188 -1.859375 14.695312 -1.160156 13.5 -0.640625 C 12.3125 -0.128906 11.113281 0.125 9.90625 0.125 C 7.34375 0.125 5.191406 -0.722656 3.453125 -2.421875 C 1.710938 -4.117188 0.84375 -6.222656 0.84375 -8.734375 C 0.84375 -11.203125 1.722656 -13.273438 3.484375 -14.953125 C 5.253906 -16.640625 7.425781 -17.484375 10 -17.484375 Z M 10 -17.484375 "/></g></g></g><g fill="#000000" fill-opacity="1"><g transform="translate(168.12368, 314.55454)"><g><path d="M 8.015625 -17.53125 C 10.265625 -17.53125 12.296875 -16.9375 14.109375 -15.75 L 12.890625 -13.15625 C 11.109375 -14.238281 9.40625 -14.78125 7.78125 -14.78125 C 6.90625 -14.78125 6.210938 -14.617188 5.703125 -14.296875 C 5.203125 -13.984375 4.953125 -13.535156 4.953125 -12.953125 C 4.953125 -12.378906 5.179688 -11.890625 5.640625 -11.484375 C 6.109375 -11.078125 6.691406 -10.773438 7.390625 -10.578125 C 8.085938 -10.390625 8.84375 -10.148438 9.65625 -9.859375 C 10.46875 -9.566406 11.21875 -9.257812 11.90625 -8.9375 C 12.601562 -8.613281 13.179688 -8.109375 13.640625 -7.421875 C 14.097656 -6.734375 14.328125 -5.898438 14.328125 -4.921875 C 14.328125 -3.398438 13.71875 -2.179688 12.5 -1.265625 C 11.28125 -0.359375 9.703125 0.09375 7.765625 0.09375 C 6.429688 0.09375 5.144531 -0.148438 3.90625 -0.640625 C 2.664062 -1.140625 1.578125 -1.8125 0.640625 -2.65625 L 1.921875 -5.203125 C 2.796875 -4.390625 3.757812 -3.757812 4.8125 -3.3125 C 5.863281 -2.875 6.863281 -2.65625 7.8125 -2.65625 C 8.84375 -2.65625 9.640625 -2.84375 10.203125 -3.21875 C 10.773438 -3.59375 11.0625 -4.113281 11.0625 -4.78125 C 11.0625 -5.375 10.828125 -5.875 10.359375 -6.28125 C 9.898438 -6.6875 9.320312 -6.984375 8.625 -7.171875 C 7.9375 -7.367188 7.1875 -7.601562 6.375 -7.875 C 5.5625 -8.144531 4.804688 -8.429688 4.109375 -8.734375 C 3.410156 -9.046875 2.828125 -9.539062 2.359375 -10.21875 C 1.898438 -10.90625 1.671875 -11.726562 1.671875 -12.6875 C 1.671875 -14.164062 2.25 -15.34375 3.40625 -16.21875 C 4.570312 -17.09375 6.109375 -17.53125 8.015625 -17.53125 Z M 8.015625 -17.53125 "/></g></g></g><g fill="#000000" fill-opacity="1"><g transform="translate(183.586705, 314.55454)"><g/></g></g><g fill="#000000" fill-opacity="1"><g transform="translate(190.000638, 314.55454)"><g><path d="M 10 -17.484375 C 11.226562 -17.484375 12.425781 -17.242188 13.59375 -16.765625 C 14.757812 -16.296875 15.765625 -15.640625 16.609375 -14.796875 L 14.90625 -12.65625 C 14.269531 -13.34375 13.519531 -13.882812 12.65625 -14.28125 C 11.800781 -14.675781 10.929688 -14.875 10.046875 -14.875 C 8.304688 -14.875 6.832031 -14.28125 5.625 -13.09375 C 4.425781 -11.90625 3.828125 -10.457031 3.828125 -8.75 C 3.828125 -7.03125 4.425781 -5.578125 5.625 -4.390625 C 6.832031 -3.203125 8.304688 -2.609375 10.046875 -2.609375 C 11.859375 -2.609375 13.476562 -3.296875 14.90625 -4.671875 L 16.640625 -2.734375 C 15.742188 -1.859375 14.695312 -1.160156 13.5 -0.640625 C 12.3125 -0.128906 11.113281 0.125 9.90625 0.125 C 7.34375 0.125 5.191406 -0.722656 3.453125 -2.421875 C 1.710938 -4.117188 0.84375 -6.222656 0.84375 -8.734375 C 0.84375 -11.203125 1.722656 -13.273438 3.484375 -14.953125 C 5.253906 -16.640625 7.425781 -17.484375 10 -17.484375 Z M 10 -17.484375 "/></g></g></g><g fill="#000000" fill-opacity="1"><g transform="translate(207.328185, 314.55454)"><g><path d="M 3.5 -14.953125 C 5.28125 -16.640625 7.472656 -17.484375 10.078125 -17.484375 C 12.679688 -17.484375 14.867188 -16.640625 16.640625 -14.953125 C 18.410156 -13.273438 19.296875 -11.191406 19.296875 -8.703125 C 19.296875 -6.210938 18.410156 -4.117188 16.640625 -2.421875 C 14.867188 -0.722656 12.679688 0.125 10.078125 0.125 C 7.472656 0.125 5.28125 -0.722656 3.5 -2.421875 C 1.726562 -4.117188 0.84375 -6.210938 0.84375 -8.703125 C 0.84375 -11.191406 1.726562 -13.273438 3.5 -14.953125 Z M 10.09375 -14.84375 C 8.375 -14.84375 6.898438 -14.25 5.671875 -13.0625 C 4.441406 -11.882812 3.828125 -10.429688 3.828125 -8.703125 C 3.828125 -6.984375 4.441406 -5.519531 5.671875 -4.3125 C 6.910156 -3.113281 8.382812 -2.515625 10.09375 -2.515625 C 11.800781 -2.515625 13.257812 -3.113281 14.46875 -4.3125 C 15.6875 -5.519531 16.296875 -6.984375 16.296875 -8.703125 C 16.296875 -10.429688 15.6875 -11.882812 14.46875 -13.0625 C 13.257812 -14.25 11.800781 -14.84375 10.09375 -14.84375 Z M 10.09375 -14.84375 "/></g></g></g><g fill="#000000" fill-opacity="1"><g transform="translate(227.464924, 314.55454)"><g><path d="M 20.703125 0 L 17.984375 0 L 17.953125 -13.015625 L 12.46875 -1.8125 L 10.546875 -1.8125 L 5.046875 -13.015625 L 5.046875 0 L 2.28125 0 L 2.28125 -17.40625 L 5.765625 -17.40625 L 11.515625 -5.84375 L 17.234375 -17.40625 L 20.703125 -17.40625 Z M 20.703125 0 "/></g></g></g><g fill="#000000" fill-opacity="1"><g transform="translate(250.460587, 314.55454)"><g><path d="M 2.28125 -17.40625 L 9.234375 -17.40625 C 11.421875 -17.40625 13.113281 -16.882812 14.3125 -15.84375 C 15.519531 -14.8125 16.125 -13.351562 16.125 -11.46875 C 16.125 -9.488281 15.519531 -7.957031 14.3125 -6.875 C 13.113281 -5.789062 11.421875 -5.25 9.234375 -5.25 L 5.21875 -5.25 L 5.21875 0 L 2.28125 0 Z M 5.21875 -14.78125 L 5.21875 -7.890625 L 9.109375 -7.890625 C 11.910156 -7.890625 13.3125 -9.054688 13.3125 -11.390625 C 13.3125 -13.648438 11.910156 -14.78125 9.109375 -14.78125 Z M 5.21875 -14.78125 "/></g></g></g><g fill="#000000" fill-opacity="1"><g transform="translate(267.191484, 314.55454)"><g><path d="M 13.53125 -3.9375 L 4.75 -3.9375 L 3.078125 0 L 0.03125 0 L 7.71875 -17.40625 L 10.71875 -17.40625 L 18.328125 0 L 15.203125 0 Z M 12.40625 -6.546875 L 9.125 -14.28125 L 5.84375 -6.546875 Z M 12.40625 -6.546875 "/></g></g></g><g fill="#000000" fill-opacity="1"><g transform="translate(285.538297, 314.55454)"><g><path d="M 17.390625 0 L 14.5 0 L 5.21875 -12.484375 L 5.21875 0 L 2.28125 0 L 2.28125 -17.40625 L 5.171875 -17.40625 L 14.5 -4.90625 L 14.5 -17.40625 L 17.390625 -17.40625 Z M 17.390625 0 "/></g></g></g><g fill="#000000" fill-opacity="1"><g transform="translate(305.227555, 314.55454)"><g><path d="M 9.421875 -5.796875 L 9.421875 0 L 6.515625 0 L 6.515625 -5.703125 L 0.03125 -17.40625 L 2.984375 -17.40625 L 7.953125 -8.9375 L 12.828125 -17.40625 L 15.828125 -17.40625 Z M 9.421875 -5.796875 "/></g></g></g>
</svg>